<svg viewBox="0 0 276 49" fill="none" xmlns="http://www.w3.org/2000/svg">
<g clip-path="url(#clip0_2046_7988)">
<path d="M187.539 35.56H212.45V30.1H196.031C198.296 21.14 212.167 19.18 212.167 9.24C212.167 3.92 208.487 0 200.702 0C195.89 0 191.644 1.4 188.813 2.8L190.511 7.84C193.059 6.58 196.031 5.46 199.711 5.46C202.542 5.46 205.231 6.72 205.231 9.94C205.231 17.22 188.954 17.78 187.539 35.56ZM213.158 26.88H229.151V35.56H235.521V26.88H240.899V21.56H235.521V0H230.85L213.158 22.68V26.88ZM220.376 21.84L229.434 9.8C229.434 10.78 229.151 13.86 229.151 16.66V21.7H224.905C223.631 21.7 221.225 21.84 220.376 21.84Z" fill="white"/>
<path d="M6.65231 30.2399V19.1799H9.34154C11.7477 19.1799 13.7292 19.4599 15.1446 20.2999C16.56 21.1399 17.4092 22.5399 17.4092 24.7799C17.4092 28.5599 15.1446 30.2399 9.76615 30.2399H6.65231ZM0.141538 35.5599H9.62462C20.24 35.5599 24.0615 30.9399 24.0615 24.4999C24.0615 20.1599 22.2215 17.2199 18.9662 15.5399C16.4185 14.1399 13.1631 13.7199 9.2 13.7199H6.65231V5.31989H20.9477L22.6462 0.139893H0V35.5599H0.141538ZM28.4492 35.5599H34.6769L42.7446 24.0799C44.3015 21.9799 45.4338 19.8799 46.1415 18.7599H46.2831C46.1415 20.2999 46 22.2599 46 24.2199V35.4199H52.3692V10.2199H46.1415L38.0738 21.6999C36.6585 23.7999 35.3846 25.8999 34.6769 27.0199H34.5354C34.6769 25.4799 34.8185 23.5199 34.8185 21.5599V10.3599H28.4492V35.5599ZM63.2677 35.5599H69.7785V15.5399H77.4215L79.12 10.2199H55.4831V15.5399H63.2677V35.5599ZM81.3846 48.2999H87.7538V35.5599C89.0277 35.9799 90.3015 36.1199 91.7169 36.1199C99.7846 36.1199 105.022 30.6599 105.022 22.8199C105.022 14.6999 100.209 9.51989 91.0092 9.51989C87.4708 9.51989 84.0739 10.2199 81.2431 11.0599V48.2999H81.3846ZM87.7538 30.0999V15.2599C88.7446 14.9799 89.5938 14.8399 90.7262 14.8399C95.3969 14.8399 98.3692 17.3599 98.3692 22.8199C98.3692 27.7199 95.9631 30.7999 91.1508 30.7999C89.8769 30.7999 88.8862 30.5199 87.7538 30.0999ZM108.843 35.5599H115.071L123.138 24.0799C124.695 21.9799 125.828 19.8799 126.535 18.7599H126.677C126.535 20.2999 126.394 22.2599 126.394 24.2199V35.4199H132.763V10.2199H126.535L118.468 21.6999C117.052 23.7999 115.778 25.8999 115.071 27.0199H114.929C115.071 25.4799 115.212 23.5199 115.212 21.5599V10.3599H108.843V35.5599ZM137.858 35.5599H144.369V25.0599H148.191C148.898 25.0599 149.606 25.7599 150.455 27.4399L153.711 35.5599H160.646L155.975 25.8999C155.126 24.2199 154.277 23.2399 153.003 22.8199V22.6799C155.126 21.4199 155.409 17.7799 156.683 15.9599C157.108 15.3999 157.674 15.1199 158.523 15.1199C158.948 15.1199 159.514 15.1199 159.938 15.3999V9.93989C159.231 9.65989 157.957 9.51989 157.249 9.51989C154.985 9.51989 153.569 10.3599 152.578 11.7599C150.455 14.8399 150.455 20.1599 147.342 20.1599H144.369V10.2199H137.858V35.5599ZM175.083 36.1199C178.622 36.1199 181.877 34.9999 183.858 33.5999L182.018 29.2599C180.178 30.2399 178.48 30.9399 176.074 30.9399C171.686 30.9399 168.855 28.1399 168.855 22.9599C168.855 18.3399 171.686 14.6999 176.498 14.6999C179.046 14.6999 180.886 15.3999 182.726 16.6599V11.1999C181.311 10.3599 179.046 9.51989 175.791 9.51989C168.148 9.51989 162.203 15.1199 162.203 23.0999C162.203 30.3799 166.732 36.1199 175.083 36.1199Z" fill="white"/>
<path d="M261.988 26.88C268.923 26.88 274.584 21.28 274.584 14.42C274.584 7.55996 268.923 1.95996 261.988 1.95996C255.052 1.95996 249.391 7.55996 249.391 14.42C249.532 21.28 255.052 26.88 261.988 26.88Z" stroke="white" stroke-width="2.50217"/>
<path d="M269.908 14.4201H262.973V7.56006H261.133V16.2401H269.908V14.4201Z" fill="white"/>
</g>
<defs>
<clipPath id="clip0_2046_7988">
<rect width="276" height="49" fill="white"/>
</clipPath>
</defs>
</svg>
