<svg xmlns="http://www.w3.org/2000/svg" viewBox="0 0 40 40" >
  <path d="M4 36H3V37H4V36ZM5 4V3H3V4H5ZM36 37H37V35H36V37ZM11.2929 23.2931L10.5858 24.0002L12 25.4144L12.7071 24.7073L11.2929 23.2931ZM19 17.0002L19.7071 16.2931L19 15.586L18.2929 16.2931L19 17.0002ZM24 22.0002L23.2929 22.7073L24 23.4144L24.7071 22.7073L24 22.0002ZM35.7071 11.7073C36.0976 11.3168 36.0976 10.6836 35.7071 10.2931C35.3166 9.90258 34.6834 9.90258 34.2929 10.2931L35.7071 11.7073ZM27.5162 9H26.5162V11H27.5162V9ZM36.0015 10H37.0015V9H36.0015V10ZM35.0015 18.4853V19.4853H37.0015V18.4853H35.0015ZM4 36H5V4H4H3V36H4ZM4 36V37H36V36V35H4V36ZM12 24.0002L12.7071 24.7073L19.7071 17.7073L19 17.0002L18.2929 16.2931L11.2929 23.2931L12 24.0002ZM19 17.0002L18.2929 17.7073L23.2929 22.7073L24 22.0002L24.7071 21.2931L19.7071 16.2931L19 17.0002ZM24 22.0002L24.7071 22.7073L35.7071 11.7073L35 11.0002L34.2929 10.2931L23.2929 21.2931L24 22.0002ZM27.5162 10V11H36.0015V10V9H27.5162V10ZM36.0015 10H35.0015V18.4853H36.0015H37.0015V10H36.0015Z" />
</svg>
