<svg xmlns="http://www.w3.org/2000/svg" viewBox="0 0 80 80" fill="none">
  <path d="M16 19.2918L15.1056 17.503L14 18.0558V19.2918H16ZM40 71.2918L38.9321 72.9829C39.5844 73.3948 40.4156 73.3948 41.0679 72.9829L40 71.2918ZM64 19.2918H66V18.0558L64.8944 17.503L64 19.2918ZM45.3666 9.97512L44.4721 11.764L45.3666 9.97512ZM33.4142 35.8776L32 34.4634L29.1716 37.2918L30.5858 38.7061L33.4142 35.8776ZM38 43.2918L36.5858 44.7061L38 46.1203L39.4142 44.7061L38 43.2918ZM51.4142 32.7061L52.8284 31.2918L50 28.4634L48.5858 29.8776L51.4142 32.7061ZM34.6334 9.97513L33.739 8.18627L15.1056 17.503L16 19.2918L16.8944 21.0807L35.5279 11.764L34.6334 9.97513ZM16 19.2918H14V46.0518H16H18V19.2918H16ZM16 46.0518H14C14 50.4588 16.5803 54.8108 20.7689 59.1199C24.9984 63.471 31.1521 68.0695 38.9321 72.9829L40 71.2918L41.0679 69.6008C33.3893 64.7515 27.5429 60.35 23.6371 56.3318C19.6904 52.2716 18 48.8849 18 46.0518H16ZM40 71.2918L41.0679 72.9829C48.7695 68.119 54.9475 64.0147 59.1875 59.9134C63.4822 55.7591 66 51.4045 66 46.0518H64H62C62 49.9392 60.2471 53.3233 56.4065 57.0383C52.5112 60.8063 46.6891 64.702 38.9321 69.6008L40 71.2918ZM64 46.0518H66C66 46.0338 66 46.0157 66 45.9976C66 45.9795 66 45.9614 66 45.9432C66 45.925 66 45.9068 66 45.8886C66 45.8703 66 45.8521 66 45.8338C66 45.8155 66 45.7972 66 45.7788C66 45.7604 66 45.7421 66 45.7236C66 45.7052 66 45.6868 66 45.6683C66 45.6498 66 45.6313 66 45.6128C66 45.5942 66 45.5756 66 45.557C66 45.5384 66 45.5198 66 45.5012C66 45.4825 66 45.4638 66 45.4451C66 45.4264 66 45.4076 66 45.3888C66 45.3701 66 45.3513 66 45.3324C66 45.3136 66 45.2947 66 45.2758C66 45.2569 66 45.238 66 45.2191C66 45.2001 66 45.1811 66 45.1621C66 45.1431 66 45.1241 66 45.105C66 45.086 66 45.0669 66 45.0477C66 45.0286 66 45.0095 66 44.9903C66 44.9711 66 44.9519 66 44.9327C66 44.9134 66 44.8942 66 44.8749C66 44.8556 66 44.8363 66 44.8169C66 44.7976 66 44.7782 66 44.7588C66 44.7394 66 44.72 66 44.7006C66 44.6811 66 44.6616 66 44.6421C66 44.6226 66 44.6031 66 44.5835C66 44.564 66 44.5444 66 44.5248C66 44.5051 66 44.4855 66 44.4658C66 44.4462 66 44.4265 66 44.4068C66 44.3871 66 44.3673 66 44.3475C66 44.3278 66 44.308 66 44.2882C66 44.2683 66 44.2485 66 44.2286C66 44.2087 66 44.1888 66 44.1689C66 44.149 66 44.1291 66 44.1091C66 44.0891 66 44.0691 66 44.0491C66 44.0291 66 44.009 66 43.9889C66 43.9689 66 43.9488 66 43.9287C66 43.9085 66 43.8884 66 43.8682C66 43.8481 66 43.8279 66 43.8076C66 43.7874 66 43.7672 66 43.7469C66 43.7266 66 43.7064 66 43.686C66 43.6657 66 43.6454 66 43.625C66 43.6047 66 43.5843 66 43.5639C66 43.5435 66 43.523 66 43.5026C66 43.4821 66 43.4617 66 43.4412C66 43.4207 66 43.4001 66 43.3796C66 43.359 66 43.3385 66 43.3179C66 43.2973 66 43.2767 66 43.256C66 43.2354 66 43.2147 66 43.1941C66 43.1734 66 43.1527 66 43.132C66 43.1112 66 43.0905 66 43.0697C66 43.0489 66 43.0282 66 43.0073C66 42.9865 66 42.9657 66 42.9448C66 42.924 66 42.9031 66 42.8822C66 42.8613 66 42.8404 66 42.8195C66 42.7985 66 42.7776 66 42.7566C66 42.7356 66 42.7146 66 42.6936C66 42.6725 66 42.6515 66 42.6304C66 42.6094 66 42.5883 66 42.5672C66 42.5461 66 42.525 66 42.5038C66 42.4827 66 42.4615 66 42.4403C66 42.4191 66 42.3979 66 42.3767C66 42.3555 66 42.3342 66 42.313C66 42.2917 66 42.2704 66 42.2491C66 42.2278 66 42.2065 66 42.1851C66 42.1638 66 42.1424 66 42.1211C66 42.0997 66 42.0783 66 42.0569C66 42.0355 66 42.014 66 41.9926C66 41.9711 66 41.9496 66 41.9282C66 41.9067 66 41.8852 66 41.8636C66 41.8421 66 41.8206 66 41.799C66 41.7774 66 41.7558 66 41.7342C66 41.7127 66 41.691 66 41.6694C66 41.6478 66 41.6261 66 41.6044C66 41.5828 66 41.5611 66 41.5394C66 41.5177 66 41.496 66 41.4742C66 41.4525 66 41.4307 66 41.409C66 41.3872 66 41.3654 66 41.3436C66 41.3218 66 41.3 66 41.2781C66 41.2563 66 41.2344 66 41.2126C66 41.1907 66 41.1688 66 41.1469C66 41.125 66 41.1031 66 41.0812C66 41.0592 66 41.0373 66 41.0153C66 40.9933 66 40.9714 66 40.9494C66 40.9274 66 40.9054 66 40.8833C66 40.8613 66 40.8393 66 40.8172C66 40.7951 66 40.7731 66 40.751C66 40.7289 66 40.7068 66 40.6847C66 40.6626 66 40.6404 66 40.6183C66 40.5961 66 40.574 66 40.5518C66 40.5296 66 40.5074 66 40.4852C66 40.463 66 40.4408 66 40.4186C66 40.3963 66 40.3741 66 40.3518C66 40.3296 66 40.3073 66 40.285C66 40.2627 66 40.2404 66 40.2181C66 40.1958 66 40.1735 66 40.1511C66 40.1288 66 40.1064 66 40.0841C66 40.0617 66 40.0393 66 40.0169C66 39.9945 66 39.9721 66 39.9497C66 39.9273 66 39.9049 66 39.8824C66 39.86 66 39.8375 66 39.8151C66 39.7926 66 39.7701 66 39.7476C66 39.7252 66 39.7026 66 39.6801C66 39.6576 66 39.6351 66 39.6126C66 39.59 66 39.5675 66 39.5449C66 39.5223 66 39.4998 66 39.4772C66 39.4546 66 39.432 66 39.4094C66 39.3868 66 39.3642 66 39.3416C66 39.3189 66 39.2963 66 39.2736C66 39.251 66 39.2283 66 39.2057C66 39.183 66 39.1603 66 39.1376C66 39.1149 66 39.0922 66 39.0695C66 39.0468 66 39.0241 66 39.0014C66 38.9786 66 38.9559 66 38.9331C66 38.9104 66 38.8876 66 38.8649C66 38.8421 66 38.8193 66 38.7965C66 38.7737 66 38.7509 66 38.7281C66 38.7053 66 38.6825 66 38.6597C66 38.6369 66 38.614 66 38.5912C66 38.5683 66 38.5455 66 38.5226C66 38.4998 66 38.4769 66 38.454C66 38.4312 66 38.4083 66 38.3854C66 38.3625 66 38.3396 66 38.3167C66 38.2938 66 38.2709 66 38.2479C66 38.225 66 38.2021 66 38.1791C66 38.1562 66 38.1332 66 38.1103C66 38.0873 66 38.0644 66 38.0414C66 38.0184 66 37.9955 66 37.9725C66 37.9495 66 37.9265 66 37.9035C66 37.8805 66 37.8575 66 37.8345C66 37.8115 66 37.7885 66 37.7654C66 37.7424 66 37.7194 66 37.6963C66 37.6733 66 37.6503 66 37.6272C66 37.6042 66 37.5811 66 37.5581C66 37.535 66 37.5119 66 37.4889C66 37.4658 66 37.4427 66 37.4196C66 37.3965 66 37.3735 66 37.3504C66 37.3273 66 37.3042 66 37.2811C66 37.258 66 37.2349 66 37.2117C66 37.1886 66 37.1655 66 37.1424C66 37.1193 66 37.0961 66 37.073C66 37.0499 66 37.0267 66 37.0036C66 36.9805 66 36.9573 66 36.9342C66 36.911 66 36.8879 66 36.8647C66 36.8415 66 36.8184 66 36.7952C66 36.772 66 36.7489 66 36.7257C66 36.7025 66 36.6794 66 36.6562C66 36.633 66 36.6098 66 36.5866C66 36.5634 66 36.5403 66 36.5171C66 36.4939 66 36.4707 66 36.4475C66 36.4243 66 36.4011 66 36.3779C66 36.3547 66 36.3315 66 36.3083C66 36.2851 66 36.2618 66 36.2386C66 36.2154 66 36.1922 66 36.169C66 36.1458 66 36.1226 66 36.0993C66 36.0761 66 36.0529 66 36.0297C66 36.0064 66 35.9832 66 35.96C66 35.9368 66 35.9135 66 35.8903C66 35.8671 66 35.8438 66 35.8206C66 35.7974 66 35.7742 66 35.7509C66 35.7277 66 35.7045 66 35.6812C66 35.658 66 35.6347 66 35.6115C66 35.5883 66 35.565 66 35.5418C66 35.5186 66 35.4953 66 35.4721C66 35.4489 66 35.4256 66 35.4024C66 35.3791 66 35.3559 66 35.3327C66 35.3094 66 35.2862 66 35.263C66 35.2397 66 35.2165 66 35.1933C66 35.17 66 35.1468 66 35.1236C66 35.1003 66 35.0771 66 35.0539C66 35.0306 66 35.0074 66 34.9842C66 34.9609 66 34.9377 66 34.9145C66 34.8913 66 34.868 66 34.8448C66 34.8216 66 34.7984 66 34.7752C66 34.7519 66 34.7287 66 34.7055C66 34.6823 66 34.6591 66 34.6359C66 34.6127 66 34.5895 66 34.5662C66 34.543 66 34.5198 66 34.4966C66 34.4734 66 34.4502 66 34.427C66 34.4038 66 34.3807 66 34.3575C66 34.3343 66 34.3111 66 34.2879C66 34.2647 66 34.2415 66 34.2184C66 34.1952 66 34.172 66 34.1488C66 34.1257 66 34.1025 66 34.0793C66 34.0562 66 34.033 66 34.0099C66 33.9867 66 33.9636 66 33.9404C66 33.9173 66 33.8941 66 33.871C66 33.8479 66 33.8247 66 33.8016C66 33.7785 66 33.7553 66 33.7322C66 33.7091 66 33.686 66 33.6629C66 33.6398 66 33.6167 66 33.5936C66 33.5705 66 33.5474 66 33.5243C66 33.5012 66 33.4781 66 33.455C66 33.4319 66 33.4089 66 33.3858C66 33.3627 66 33.3397 66 33.3166C66 33.2936 66 33.2705 66 33.2475C66 33.2244 66 33.2014 66 33.1783C66 33.1553 66 33.1323 66 33.1093C66 33.0863 66 33.0632 66 33.0402C66 33.0172 66 32.9942 66 32.9712C66 32.9482 66 32.9253 66 32.9023C66 32.8793 66 32.8563 66 32.8334C66 32.8104 66 32.7874 66 32.7645C66 32.7416 66 32.7186 66 32.6957C66 32.6727 66 32.6498 66 32.6269C66 32.604 66 32.5811 66 32.5582C66 32.5353 66 32.5124 66 32.4895C66 32.4666 66 32.4437 66 32.4208C66 32.398 66 32.3751 66 32.3523C66 32.3294 66 32.3066 66 32.2837C66 32.2609 66 32.2381 66 32.2152C66 32.1924 66 32.1696 66 32.1468C66 32.124 66 32.1012 66 32.0784C66 32.0557 66 32.0329 66 32.0101C66 31.9874 66 31.9646 66 31.9419C66 31.9191 66 31.8964 66 31.8737C66 31.8509 66 31.8282 66 31.8055C66 31.7828 66 31.7601 66 31.7374C66 31.7148 66 31.6921 66 31.6694C66 31.6468 66 31.6241 66 31.6015C66 31.5788 66 31.5562 66 31.5336C66 31.511 66 31.4884 66 31.4658C66 31.4432 66 31.4206 66 31.398C66 31.3754 66 31.3529 66 31.3303C66 31.3078 66 31.2852 66 31.2627C66 31.2402 66 31.2176 66 31.1951C66 31.1726 66 31.1501 66 31.1277C66 31.1052 66 31.0827 66 31.0603C66 31.0378 66 31.0153 66 30.9929C66 30.9705 66 30.9481 66 30.9257C66 30.9032 66 30.8809 66 30.8585C66 30.8361 66 30.8137 66 30.7914C66 30.769 66 30.7467 66 30.7243C66 30.702 66 30.6797 66 30.6574C66 30.6351 66 30.6128 66 30.5905C66 30.5682 66 30.546 66 30.5237C66 30.5015 66 30.4792 66 30.457C66 30.4348 66 30.4126 66 30.3904C66 30.3682 66 30.346 66 30.3239C66 30.3017 66 30.2795 66 30.2574C66 30.2353 66 30.2132 66 30.191C66 30.1689 66 30.1468 66 30.1248C66 30.1027 66 30.0806 66 30.0586C66 30.0365 66 30.0145 66 29.9925C66 29.9705 66 29.9485 66 29.9265C66 29.9045 66 29.8825 66 29.8606C66 29.8386 66 29.8167 66 29.7948C66 29.7728 66 29.7509 66 29.729C66 29.7071 66 29.6853 66 29.6634C66 29.6416 66 29.6197 66 29.5979C66 29.5761 66 29.5543 66 29.5325C66 29.5107 66 29.4889 66 29.4671C66 29.4454 66 29.4236 66 29.4019C66 29.3802 66 29.3585 66 29.3368C66 29.3151 66 29.2934 66 29.2718C66 29.2501 66 29.2285 66 29.2068C66 29.1852 66 29.1636 66 29.142C66 29.1205 66 29.0989 66 29.0773C66 29.0558 66 29.0343 66 29.0127C66 28.9912 66 28.9697 66 28.9483C66 28.9268 66 28.9053 66 28.8839C66 28.8624 66 28.841 66 28.8196C66 28.7982 66 28.7768 66 28.7555C66 28.7341 66 28.7127 66 28.6914C66 28.6701 66 28.6488 66 28.6275C66 28.6062 66 28.5849 66 28.5637C66 28.5424 66 28.5212 66 28.5C66 28.4788 66 28.4576 66 28.4364C66 28.4153 66 28.3941 66 28.373C66 28.3519 66 28.3307 66 28.3097C66 28.2886 66 28.2675 66 28.2464C66 28.2254 66 28.2044 66 28.1834C66 28.1623 66 28.1414 66 28.1204C66 28.0994 66 28.0785 66 28.0576C66 28.0366 66 28.0157 66 27.9948C66 27.974 66 27.9531 66 27.9323C66 27.9114 66 27.8906 66 27.8698C66 27.849 66 27.8282 66 27.8075C66 27.7867 66 27.766 66 27.7453C66 27.7246 66 27.7039 66 27.6832C66 27.6626 66 27.6419 66 27.6213C66 27.6007 66 27.5801 66 27.5595C66 27.5389 66 27.5184 66 27.4979C66 27.4773 66 27.4568 66 27.4363C66 27.4159 66 27.3954 66 27.375C66 27.3545 66 27.3341 66 27.3137C66 27.2933 66 27.273 66 27.2526C66 27.2323 66 27.212 66 27.1917C66 27.1714 66 27.1511 66 27.1308C66 27.1106 66 27.0904 66 27.0702C66 27.05 66 27.0298 66 27.0096C66 26.9895 66 26.9694 66 26.9493C66 26.9292 66 26.9091 66 26.889C66 26.869 66 26.8489 66 26.8289C66 26.8089 66 26.789 66 26.769C66 26.749 66 26.7291 66 26.7092C66 26.6893 66 26.6694 66 26.6496C66 26.6297 66 26.6099 66 26.5901C66 26.5703 66 26.5505 66 26.5308C66 26.511 66 26.4913 66 26.4716C66 26.4519 66 26.4322 66 26.4126C66 26.3929 66 26.3733 66 26.3537C66 26.3341 66 26.3146 66 26.295C66 26.2755 66 26.256 66 26.2365C66 26.217 66 26.1975 66 26.1781C66 26.1587 66 26.1393 66 26.1199C66 26.1005 66 26.0812 66 26.0618C66 26.0425 66 26.0232 66 26.0039C66 25.9847 66 25.9654 66 25.9462C66 25.927 66 25.9078 66 25.8887C66 25.8695 66 25.8504 66 25.8313C66 25.8122 66 25.7931 66 25.7741C66 25.755 66 25.736 66 25.717C66 25.698 66 25.6791 66 25.6601C66 25.6412 66 25.6223 66 25.6034C66 25.5846 66 25.5657 66 25.5469C66 25.5281 66 25.5093 66 25.4906C66 25.4718 66 25.4531 66 25.4344C66 25.4157 66 25.397 66 25.3784C66 25.3597 66 25.3411 66 25.3225C66 25.304 66 25.2854 66 25.2669C66 25.2484 66 25.2299 66 25.2114C66 25.193 66 25.1746 66 25.1562C66 25.1378 66 25.1194 66 25.1011C66 25.0827 66 25.0644 66 25.0462C66 25.0279 66 25.0096 66 24.9914C66 24.9732 66 24.955 66 24.9369C66 24.9187 66 24.9006 66 24.8825C66 24.8644 66 24.8464 66 24.8284C66 24.8103 66 24.7923 66 24.7744C66 24.7564 66 24.7385 66 24.7206C66 24.7027 66 24.6848 66 24.667C66 24.6492 66 24.6314 66 24.6136C66 24.5958 66 24.5781 66 24.5604C66 24.5427 66 24.525 66 24.5074C66 24.4898 66 24.4722 66 24.4546C66 24.437 66 24.4195 66 24.402C66 24.3845 66 24.367 66 24.3496C66 24.3321 66 24.3147 66 24.2973C66 24.28 66 24.2626 66 24.2453C66 24.228 66 24.2108 66 24.1935C66 24.1763 66 24.1591 66 24.1419C66 24.1247 66 24.1076 66 24.0905C66 24.0734 66 24.0563 66 24.0393C66 24.0223 66 24.0053 66 23.9883C66 23.9714 66 23.9544 66 23.9375C66 23.9207 66 23.9038 66 23.887C66 23.8702 66 23.8534 66 23.8366C66 23.8199 66 23.8031 66 23.7865C66 23.7698 66 23.7531 66 23.7365C66 23.7199 66 23.7033 66 23.6868C66 23.6703 66 23.6538 66 23.6373C66 23.6208 66 23.6044 66 23.588C66 23.5716 66 23.5553 66 23.5389C66 23.5226 66 23.5063 66 23.4901C66 23.4738 66 23.4576 66 23.4415C66 23.4253 66 23.4091 66 23.393C66 23.3769 66 23.3609 66 23.3449C66 23.3288 66 23.3128 66 23.2969C66 23.2809 66 23.265 66 23.2492C66 23.2333 66 23.2174 66 23.2016C66 23.1858 66 23.1701 66 23.1543C66 23.1386 66 23.1229 66 23.1073C66 23.0916 66 23.076 66 23.0605C66 23.0449 66 23.0293 66 23.0139C66 22.9984 66 22.9829 66 22.9675C66 22.9521 66 22.9367 66 22.9213C66 22.906 66 22.8907 66 22.8754C66 22.8602 66 22.845 66 22.8298C66 22.8146 66 22.7994 66 22.7843C66 22.7692 66 22.7542 66 22.7391C66 22.7241 66 22.7091 66 22.6942C66 22.6792 66 22.6643 66 22.6495C66 22.6346 66 22.6198 66 22.605C66 22.5902 66 22.5755 66 22.5608C66 22.5461 66 22.5314 66 22.5168C66 22.5021 66 22.4876 66 22.473C66 22.4585 66 22.444 66 22.4295C66 22.4151 66 22.4006 66 22.3863C66 22.3719 66 22.3575 66 22.3433C66 22.329 66 22.3147 66 22.3005C66 22.2863 66 22.2721 66 22.258C66 22.2439 66 22.2298 66 22.2157C66 22.2017 66 22.1877 66 22.1737C66 22.1598 66 22.1458 66 22.132C66 22.1181 66 22.1043 66 22.0905C66 22.0767 66 22.0629 66 22.0492C66 22.0355 66 22.0219 66 22.0082C66 21.9946 66 21.981 66 21.9675C66 21.954 66 21.9405 66 21.927C66 21.9136 66 21.9002 66 21.8868C66 21.8735 66 21.8602 66 21.8469C66 21.8336 66 21.8204 66 21.8072C66 21.794 66 21.7809 66 21.7678C66 21.7547 66 21.7416 66 21.7286C66 21.7156 66 21.7027 66 21.6897C66 21.6768 66 21.6639 66 21.6511C66 21.6383 66 21.6255 66 21.6128C66 21.6 66 21.5873 66 21.5747C66 21.562 66 21.5494 66 21.5369C66 21.5243 66 21.5118 66 21.4993C66 21.4868 66 21.4744 66 21.462C66 21.4497 66 21.4373 66 21.4251C66 21.4128 66 21.4005 66 21.3883C66 21.3761 66 21.364 66 21.3519C66 21.3398 66 21.3277 66 21.3157C66 21.3037 66 21.2918 66 21.2798C66 21.2679 66 21.2561 66 21.2442C66 21.2324 66 21.2206 66 21.2089C66 21.1972 66 21.1855 66 21.1739C66 21.1622 66 21.1506 66 21.1391C66 21.1276 66 21.1161 66 21.1046C66 21.0932 66 21.0818 66 21.0704C66 21.0591 66 21.0478 66 21.0365C66 21.0253 66 21.0141 66 21.0029C66 20.9918 66 20.9806 66 20.9696C66 20.9585 66 20.9475 66 20.9366C66 20.9256 66 20.9147 66 20.9038C66 20.8929 66 20.8821 66 20.8714C66 20.8606 66 20.8499 66 20.8392C66 20.8285 66 20.8179 66 20.8073C66 20.7968 66 20.7862 66 20.7758C66 20.7653 66 20.7549 66 20.7445C66 20.7341 66 20.7238 66 20.7135C66 20.7033 66 20.693 66 20.6829C66 20.6727 66 20.6626 66 20.6525C66 20.6424 66 20.6324 66 20.6224C66 20.6124 66 20.6025 66 20.5926C66 20.5828 66 20.573 66 20.5632C66 20.5534 66 20.5437 66 20.534C66 20.5244 66 20.5147 66 20.5052C66 20.4956 66 20.4861 66 20.4766C66 20.4672 66 20.4578 66 20.4484C66 20.439 66 20.4297 66 20.4205C66 20.4112 66 20.402 66 20.3929C66 20.3837 66 20.3746 66 20.3656C66 20.3565 66 20.3475 66 20.3386C66 20.3296 66 20.3207 66 20.3119C66 20.3031 66 20.2943 66 20.2855C66 20.2768 66 20.2681 66 20.2595C66 20.2509 66 20.2423 66 20.2338C66 20.2252 66 20.2168 66 20.2084C66 20.1999 66 20.1916 66 20.1833C66 20.175 66 20.1667 66 20.1585C66 20.1503 66 20.1422 66 20.1341C66 20.126 66 20.1179 66 20.11C66 20.102 66 20.094 66 20.0862C66 20.0783 66 20.0705 66 20.0627C66 20.0549 66 20.0472 66 20.0396C66 20.0319 66 20.0243 66 20.0168C66 20.0092 66 20.0017 66 19.9943C66 19.9868 66 19.9795 66 19.9721C66 19.9648 66 19.9575 66 19.9503C66 19.9431 66 19.9359 66 19.9288C66 19.9217 66 19.9147 66 19.9077C66 19.9007 66 19.8937 66 19.8869C66 19.88 66 19.8731 66 19.8664C66 19.8596 66 19.8529 66 19.8462C66 19.8396 66 19.833 66 19.8264C66 19.8199 66 19.8134 66 19.807C66 19.8005 66 19.7942 66 19.7878C66 19.7815 66 19.7753 66 19.7691C66 19.7629 66 19.7567 66 19.7506C66 19.7445 66 19.7385 66 19.7325C66 19.7266 66 19.7207 66 19.7148C66 19.7089 66 19.7031 66 19.6974C66 19.6917 66 19.686 66 19.6803C66 19.6747 66 19.6691 66 19.6636C66 19.6581 66 19.6527 66 19.6473C66 19.6419 66 19.6366 66 19.6313C66 19.626 66 19.6208 66 19.6156C66 19.6105 66 19.6054 66 19.6003C66 19.5953 66 19.5903 66 19.5854C66 19.5805 66 19.5756 66 19.5708C66 19.566 66 19.5613 66 19.5566C66 19.5519 66 19.5473 66 19.5427C66 19.5382 66 19.5337 66 19.5292C66 19.5248 66 19.5204 66 19.5161C66 19.5117 66 19.5075 66 19.5033C66 19.4991 66 19.4949 66 19.4909C66 19.4868 66 19.4828 66 19.4788C66 19.4748 66 19.4709 66 19.4671C66 19.4633 66 19.4595 66 19.4558C66 19.4521 66 19.4484 66 19.4448C66 19.4412 66 19.4377 66 19.4342C66 19.4308 66 19.4274 66 19.424C66 19.4207 66 19.4174 66 19.4142C66 19.4109 66 19.4078 66 19.4047C66 19.4016 66 19.3985 66 19.3956C66 19.3926 66 19.3897 66 19.3868C66 19.384 66 19.3812 66 19.3785C66 19.3758 66 19.3731 66 19.3705C66 19.3679 66 19.3654 66 19.3629C66 19.3604 66 19.358 66 19.3557C66 19.3533 66 19.3511 66 19.3488C66 19.3466 66 19.3445 66 19.3424C66 19.3403 66 19.3383 66 19.3363C66 19.3343 66 19.3324 66 19.3306C66 19.3288 66 19.327 66 19.3253C66 19.3236 66 19.322 66 19.3204C66 19.3188 66 19.3173 66 19.3158C66 19.3144 66 19.313 66 19.3117C66 19.3104 66 19.3091 66 19.3079C66 19.3068 66 19.3056 66 19.3046C66 19.3035 66 19.3025 66 19.3016C66 19.3007 66 19.2998 66 19.299C66 19.2982 66 19.2975 66 19.2968C66 19.2962 66 19.2956 66 19.295C66 19.2945 66 19.294 66 19.2936C66 19.2932 66 19.2929 66 19.2926C66 19.2924 66 19.2922 66 19.292C66 19.2919 66 19.2918 64 19.2918C62 19.2918 62 19.2919 62 19.292C62 19.2922 62 19.2924 62 19.2926C62 19.2929 62 19.2932 62 19.2936C62 19.294 62 19.2945 62 19.295C62 19.2956 62 19.2962 62 19.2968C62 19.2975 62 19.2982 62 19.299C62 19.2998 62 19.3007 62 19.3016C62 19.3025 62 19.3035 62 19.3046C62 19.3056 62 19.3068 62 19.3079C62 19.3091 62 19.3104 62 19.3117C62 19.313 62 19.3144 62 19.3158C62 19.3173 62 19.3188 62 19.3204C62 19.322 62 19.3236 62 19.3253C62 19.327 62 19.3288 62 19.3306C62 19.3324 62 19.3343 62 19.3363C62 19.3383 62 19.3403 62 19.3424C62 19.3445 62 19.3466 62 19.3488C62 19.3511 62 19.3533 62 19.3557C62 19.358 62 19.3604 62 19.3629C62 19.3654 62 19.3679 62 19.3705C62 19.3731 62 19.3758 62 19.3785C62 19.3812 62 19.384 62 19.3868C62 19.3897 62 19.3926 62 19.3956C62 19.3985 62 19.4016 62 19.4047C62 19.4078 62 19.4109 62 19.4142C62 19.4174 62 19.4207 62 19.424C62 19.4274 62 19.4308 62 19.4342C62 19.4377 62 19.4412 62 19.4448C62 19.4484 62 19.4521 62 19.4558C62 19.4595 62 19.4633 62 19.4671C62 19.4709 62 19.4748 62 19.4788C62 19.4828 62 19.4868 62 19.4909C62 19.4949 62 19.4991 62 19.5033C62 19.5075 62 19.5117 62 19.5161C62 19.5204 62 19.5248 62 19.5292C62 19.5337 62 19.5382 62 19.5427C62 19.5473 62 19.5519 62 19.5566C62 19.5613 62 19.566 62 19.5708C62 19.5756 62 19.5805 62 19.5854C62 19.5903 62 19.5953 62 19.6003C62 19.6054 62 19.6105 62 19.6156C62 19.6208 62 19.626 62 19.6313C62 19.6366 62 19.6419 62 19.6473C62 19.6527 62 19.6581 62 19.6636C62 19.6691 62 19.6747 62 19.6803C62 19.686 62 19.6917 62 19.6974C62 19.7031 62 19.7089 62 19.7148C62 19.7207 62 19.7266 62 19.7325C62 19.7385 62 19.7445 62 19.7506C62 19.7567 62 19.7629 62 19.7691C62 19.7753 62 19.7815 62 19.7878C62 19.7942 62 19.8005 62 19.807C62 19.8134 62 19.8199 62 19.8264C62 19.833 62 19.8396 62 19.8462C62 19.8529 62 19.8596 62 19.8664C62 19.8731 62 19.88 62 19.8869C62 19.8937 62 19.9007 62 19.9077C62 19.9147 62 19.9217 62 19.9288C62 19.9359 62 19.9431 62 19.9503C62 19.9575 62 19.9648 62 19.9721C62 19.9795 62 19.9868 62 19.9943C62 20.0017 62 20.0092 62 20.0168C62 20.0243 62 20.0319 62 20.0396C62 20.0472 62 20.0549 62 20.0627C62 20.0705 62 20.0783 62 20.0862C62 20.094 62 20.102 62 20.11C62 20.1179 62 20.126 62 20.1341C62 20.1422 62 20.1503 62 20.1585C62 20.1667 62 20.175 62 20.1833C62 20.1916 62 20.1999 62 20.2084C62 20.2168 62 20.2252 62 20.2338C62 20.2423 62 20.2509 62 20.2595C62 20.2681 62 20.2768 62 20.2855C62 20.2943 62 20.3031 62 20.3119C62 20.3207 62 20.3296 62 20.3386C62 20.3475 62 20.3565 62 20.3656C62 20.3746 62 20.3837 62 20.3929C62 20.402 62 20.4112 62 20.4205C62 20.4297 62 20.439 62 20.4484C62 20.4578 62 20.4672 62 20.4766C62 20.4861 62 20.4956 62 20.5052C62 20.5147 62 20.5244 62 20.534C62 20.5437 62 20.5534 62 20.5632C62 20.573 62 20.5828 62 20.5926C62 20.6025 62 20.6124 62 20.6224C62 20.6324 62 20.6424 62 20.6525C62 20.6626 62 20.6727 62 20.6829C62 20.693 62 20.7033 62 20.7135C62 20.7238 62 20.7341 62 20.7445C62 20.7549 62 20.7653 62 20.7758C62 20.7862 62 20.7968 62 20.8073C62 20.8179 62 20.8285 62 20.8392C62 20.8499 62 20.8606 62 20.8714C62 20.8821 62 20.8929 62 20.9038C62 20.9147 62 20.9256 62 20.9366C62 20.9475 62 20.9585 62 20.9696C62 20.9806 62 20.9918 62 21.0029C62 21.0141 62 21.0253 62 21.0365C62 21.0478 62 21.0591 62 21.0704C62 21.0818 62 21.0932 62 21.1046C62 21.1161 62 21.1276 62 21.1391C62 21.1506 62 21.1622 62 21.1739C62 21.1855 62 21.1972 62 21.2089C62 21.2206 62 21.2324 62 21.2442C62 21.2561 62 21.2679 62 21.2798C62 21.2918 62 21.3037 62 21.3157C62 21.3277 62 21.3398 62 21.3519C62 21.364 62 21.3761 62 21.3883C62 21.4005 62 21.4128 62 21.4251C62 21.4373 62 21.4497 62 21.462C62 21.4744 62 21.4868 62 21.4993C62 21.5118 62 21.5243 62 21.5369C62 21.5494 62 21.562 62 21.5747C62 21.5873 62 21.6 62 21.6128C62 21.6255 62 21.6383 62 21.6511C62 21.6639 62 21.6768 62 21.6897C62 21.7027 62 21.7156 62 21.7286C62 21.7416 62 21.7547 62 21.7678C62 21.7809 62 21.794 62 21.8072C62 21.8204 62 21.8336 62 21.8469C62 21.8602 62 21.8735 62 21.8868C62 21.9002 62 21.9136 62 21.927C62 21.9405 62 21.954 62 21.9675C62 21.981 62 21.9946 62 22.0082C62 22.0219 62 22.0355 62 22.0492C62 22.0629 62 22.0767 62 22.0905C62 22.1043 62 22.1181 62 22.132C62 22.1458 62 22.1598 62 22.1737C62 22.1877 62 22.2017 62 22.2157C62 22.2298 62 22.2439 62 22.258C62 22.2721 62 22.2863 62 22.3005C62 22.3147 62 22.329 62 22.3433C62 22.3575 62 22.3719 62 22.3863C62 22.4006 62 22.4151 62 22.4295C62 22.444 62 22.4585 62 22.473C62 22.4876 62 22.5021 62 22.5168C62 22.5314 62 22.5461 62 22.5608C62 22.5755 62 22.5902 62 22.605C62 22.6198 62 22.6346 62 22.6495C62 22.6643 62 22.6792 62 22.6942C62 22.7091 62 22.7241 62 22.7391C62 22.7542 62 22.7692 62 22.7843C62 22.7994 62 22.8146 62 22.8298C62 22.845 62 22.8602 62 22.8754C62 22.8907 62 22.906 62 22.9213C62 22.9367 62 22.9521 62 22.9675C62 22.9829 62 22.9984 62 23.0139C62 23.0293 62 23.0449 62 23.0605C62 23.076 62 23.0916 62 23.1073C62 23.1229 62 23.1386 62 23.1543C62 23.1701 62 23.1858 62 23.2016C62 23.2174 62 23.2333 62 23.2492C62 23.265 62 23.2809 62 23.2969C62 23.3128 62 23.3288 62 23.3449C62 23.3609 62 23.3769 62 23.393C62 23.4091 62 23.4253 62 23.4415C62 23.4576 62 23.4738 62 23.4901C62 23.5063 62 23.5226 62 23.5389C62 23.5553 62 23.5716 62 23.588C62 23.6044 62 23.6208 62 23.6373C62 23.6538 62 23.6703 62 23.6868C62 23.7033 62 23.7199 62 23.7365C62 23.7531 62 23.7698 62 23.7865C62 23.8031 62 23.8199 62 23.8366C62 23.8534 62 23.8702 62 23.887C62 23.9038 62 23.9207 62 23.9375C62 23.9544 62 23.9714 62 23.9883C62 24.0053 62 24.0223 62 24.0393C62 24.0563 62 24.0734 62 24.0905C62 24.1076 62 24.1247 62 24.1419C62 24.1591 62 24.1763 62 24.1935C62 24.2108 62 24.228 62 24.2453C62 24.2626 62 24.28 62 24.2973C62 24.3147 62 24.3321 62 24.3496C62 24.367 62 24.3845 62 24.402C62 24.4195 62 24.437 62 24.4546C62 24.4722 62 24.4898 62 24.5074C62 24.525 62 24.5427 62 24.5604C62 24.5781 62 24.5958 62 24.6136C62 24.6314 62 24.6492 62 24.667C62 24.6848 62 24.7027 62 24.7206C62 24.7385 62 24.7564 62 24.7744C62 24.7923 62 24.8103 62 24.8284C62 24.8464 62 24.8644 62 24.8825C62 24.9006 62 24.9187 62 24.9369C62 24.955 62 24.9732 62 24.9914C62 25.0096 62 25.0279 62 25.0462C62 25.0644 62 25.0827 62 25.1011C62 25.1194 62 25.1378 62 25.1562C62 25.1746 62 25.193 62 25.2114C62 25.2299 62 25.2484 62 25.2669C62 25.2854 62 25.304 62 25.3225C62 25.3411 62 25.3597 62 25.3784C62 25.397 62 25.4157 62 25.4344C62 25.4531 62 25.4718 62 25.4906C62 25.5093 62 25.5281 62 25.5469C62 25.5657 62 25.5846 62 25.6034C62 25.6223 62 25.6412 62 25.6601C62 25.6791 62 25.698 62 25.717C62 25.736 62 25.755 62 25.7741C62 25.7931 62 25.8122 62 25.8313C62 25.8504 62 25.8695 62 25.8887C62 25.9078 62 25.927 62 25.9462C62 25.9654 62 25.9847 62 26.0039C62 26.0232 62 26.0425 62 26.0618C62 26.0812 62 26.1005 62 26.1199C62 26.1393 62 26.1587 62 26.1781C62 26.1975 62 26.217 62 26.2365C62 26.256 62 26.2755 62 26.295C62 26.3146 62 26.3341 62 26.3537C62 26.3733 62 26.3929 62 26.4126C62 26.4322 62 26.4519 62 26.4716C62 26.4913 62 26.511 62 26.5308C62 26.5505 62 26.5703 62 26.5901C62 26.6099 62 26.6297 62 26.6496C62 26.6694 62 26.6893 62 26.7092C62 26.7291 62 26.749 62 26.769C62 26.789 62 26.8089 62 26.8289C62 26.8489 62 26.869 62 26.889C62 26.9091 62 26.9292 62 26.9493C62 26.9694 62 26.9895 62 27.0096C62 27.0298 62 27.05 62 27.0702C62 27.0904 62 27.1106 62 27.1308C62 27.1511 62 27.1714 62 27.1917C62 27.212 62 27.2323 62 27.2526C62 27.273 62 27.2933 62 27.3137C62 27.3341 62 27.3545 62 27.375C62 27.3954 62 27.4159 62 27.4363C62 27.4568 62 27.4773 62 27.4979C62 27.5184 62 27.5389 62 27.5595C62 27.5801 62 27.6007 62 27.6213C62 27.6419 62 27.6626 62 27.6832C62 27.7039 62 27.7246 62 27.7453C62 27.766 62 27.7867 62 27.8075C62 27.8282 62 27.849 62 27.8698C62 27.8906 62 27.9114 62 27.9323C62 27.9531 62 27.974 62 27.9948C62 28.0157 62 28.0366 62 28.0576C62 28.0785 62 28.0994 62 28.1204C62 28.1414 62 28.1623 62 28.1834C62 28.2044 62 28.2254 62 28.2464C62 28.2675 62 28.2886 62 28.3097C62 28.3307 62 28.3519 62 28.373C62 28.3941 62 28.4153 62 28.4364C62 28.4576 62 28.4788 62 28.5C62 28.5212 62 28.5424 62 28.5637C62 28.5849 62 28.6062 62 28.6275C62 28.6488 62 28.6701 62 28.6914C62 28.7127 62 28.7341 62 28.7555C62 28.7768 62 28.7982 62 28.8196C62 28.841 62 28.8624 62 28.8839C62 28.9053 62 28.9268 62 28.9483C62 28.9697 62 28.9912 62 29.0127C62 29.0343 62 29.0558 62 29.0773C62 29.0989 62 29.1205 62 29.142C62 29.1636 62 29.1852 62 29.2068C62 29.2285 62 29.2501 62 29.2718C62 29.2934 62 29.3151 62 29.3368C62 29.3585 62 29.3802 62 29.4019C62 29.4236 62 29.4454 62 29.4671C62 29.4889 62 29.5107 62 29.5325C62 29.5543 62 29.5761 62 29.5979C62 29.6197 62 29.6416 62 29.6634C62 29.6853 62 29.7071 62 29.729C62 29.7509 62 29.7728 62 29.7948C62 29.8167 62 29.8386 62 29.8606C62 29.8825 62 29.9045 62 29.9265C62 29.9485 62 29.9705 62 29.9925C62 30.0145 62 30.0365 62 30.0586C62 30.0806 62 30.1027 62 30.1248C62 30.1468 62 30.1689 62 30.191C62 30.2132 62 30.2353 62 30.2574C62 30.2795 62 30.3017 62 30.3239C62 30.346 62 30.3682 62 30.3904C62 30.4126 62 30.4348 62 30.457C62 30.4792 62 30.5015 62 30.5237C62 30.546 62 30.5682 62 30.5905C62 30.6128 62 30.6351 62 30.6574C62 30.6797 62 30.702 62 30.7243C62 30.7467 62 30.769 62 30.7914C62 30.8137 62 30.8361 62 30.8585C62 30.8809 62 30.9032 62 30.9257C62 30.9481 62 30.9705 62 30.9929C62 31.0153 62 31.0378 62 31.0603C62 31.0827 62 31.1052 62 31.1277C62 31.1501 62 31.1726 62 31.1951C62 31.2176 62 31.2402 62 31.2627C62 31.2852 62 31.3078 62 31.3303C62 31.3529 62 31.3754 62 31.398C62 31.4206 62 31.4432 62 31.4658C62 31.4884 62 31.511 62 31.5336C62 31.5562 62 31.5788 62 31.6015C62 31.6241 62 31.6468 62 31.6694C62 31.6921 62 31.7148 62 31.7374C62 31.7601 62 31.7828 62 31.8055C62 31.8282 62 31.8509 62 31.8737C62 31.8964 62 31.9191 62 31.9419C62 31.9646 62 31.9874 62 32.0101C62 32.0329 62 32.0557 62 32.0784C62 32.1012 62 32.124 62 32.1468C62 32.1696 62 32.1924 62 32.2152C62 32.2381 62 32.2609 62 32.2837C62 32.3066 62 32.3294 62 32.3523C62 32.3751 62 32.398 62 32.4208C62 32.4437 62 32.4666 62 32.4895C62 32.5124 62 32.5353 62 32.5582C62 32.5811 62 32.604 62 32.6269C62 32.6498 62 32.6727 62 32.6957C62 32.7186 62 32.7416 62 32.7645C62 32.7874 62 32.8104 62 32.8334C62 32.8563 62 32.8793 62 32.9023C62 32.9253 62 32.9482 62 32.9712C62 32.9942 62 33.0172 62 33.0402C62 33.0632 62 33.0863 62 33.1093C62 33.1323 62 33.1553 62 33.1783C62 33.2014 62 33.2244 62 33.2475C62 33.2705 62 33.2936 62 33.3166C62 33.3397 62 33.3627 62 33.3858C62 33.4089 62 33.4319 62 33.455C62 33.4781 62 33.5012 62 33.5243C62 33.5474 62 33.5705 62 33.5936C62 33.6167 62 33.6398 62 33.6629C62 33.686 62 33.7091 62 33.7322C62 33.7553 62 33.7785 62 33.8016C62 33.8247 62 33.8479 62 33.871C62 33.8941 62 33.9173 62 33.9404C62 33.9636 62 33.9867 62 34.0099C62 34.033 62 34.0562 62 34.0793C62 34.1025 62 34.1257 62 34.1488C62 34.172 62 34.1952 62 34.2184C62 34.2415 62 34.2647 62 34.2879C62 34.3111 62 34.3343 62 34.3575C62 34.3807 62 34.4038 62 34.427C62 34.4502 62 34.4734 62 34.4966C62 34.5198 62 34.543 62 34.5662C62 34.5895 62 34.6127 62 34.6359C62 34.6591 62 34.6823 62 34.7055C62 34.7287 62 34.7519 62 34.7752C62 34.7984 62 34.8216 62 34.8448C62 34.868 62 34.8913 62 34.9145C62 34.9377 62 34.9609 62 34.9842C62 35.0074 62 35.0306 62 35.0539C62 35.0771 62 35.1003 62 35.1236C62 35.1468 62 35.17 62 35.1933C62 35.2165 62 35.2397 62 35.263C62 35.2862 62 35.3094 62 35.3327C62 35.3559 62 35.3791 62 35.4024C62 35.4256 62 35.4489 62 35.4721C62 35.4953 62 35.5186 62 35.5418C62 35.565 62 35.5883 62 35.6115C62 35.6347 62 35.658 62 35.6812C62 35.7045 62 35.7277 62 35.7509C62 35.7742 62 35.7974 62 35.8206C62 35.8438 62 35.8671 62 35.8903C62 35.9135 62 35.9368 62 35.96C62 35.9832 62 36.0064 62 36.0297C62 36.0529 62 36.0761 62 36.0993C62 36.1226 62 36.1458 62 36.169C62 36.1922 62 36.2154 62 36.2386C62 36.2618 62 36.2851 62 36.3083C62 36.3315 62 36.3547 62 36.3779C62 36.4011 62 36.4243 62 36.4475C62 36.4707 62 36.4939 62 36.5171C62 36.5403 62 36.5634 62 36.5866C62 36.6098 62 36.633 62 36.6562C62 36.6794 62 36.7025 62 36.7257C62 36.7489 62 36.772 62 36.7952C62 36.8184 62 36.8415 62 36.8647C62 36.8879 62 36.911 62 36.9342C62 36.9573 62 36.9805 62 37.0036C62 37.0267 62 37.0499 62 37.073C62 37.0961 62 37.1193 62 37.1424C62 37.1655 62 37.1886 62 37.2117C62 37.2349 62 37.258 62 37.2811C62 37.3042 62 37.3273 62 37.3504C62 37.3735 62 37.3965 62 37.4196C62 37.4427 62 37.4658 62 37.4889C62 37.5119 62 37.535 62 37.5581C62 37.5811 62 37.6042 62 37.6272C62 37.6503 62 37.6733 62 37.6963C62 37.7194 62 37.7424 62 37.7654C62 37.7885 62 37.8115 62 37.8345C62 37.8575 62 37.8805 62 37.9035C62 37.9265 62 37.9495 62 37.9725C62 37.9955 62 38.0184 62 38.0414C62 38.0644 62 38.0873 62 38.1103C62 38.1332 62 38.1562 62 38.1791C62 38.2021 62 38.225 62 38.2479C62 38.2709 62 38.2938 62 38.3167C62 38.3396 62 38.3625 62 38.3854C62 38.4083 62 38.4312 62 38.454C62 38.4769 62 38.4998 62 38.5226C62 38.5455 62 38.5683 62 38.5912C62 38.614 62 38.6369 62 38.6597C62 38.6825 62 38.7053 62 38.7281C62 38.7509 62 38.7737 62 38.7965C62 38.8193 62 38.8421 62 38.8649C62 38.8876 62 38.9104 62 38.9331C62 38.9559 62 38.9786 62 39.0014C62 39.0241 62 39.0468 62 39.0695C62 39.0922 62 39.1149 62 39.1376C62 39.1603 62 39.183 62 39.2057C62 39.2283 62 39.251 62 39.2736C62 39.2963 62 39.3189 62 39.3416C62 39.3642 62 39.3868 62 39.4094C62 39.432 62 39.4546 62 39.4772C62 39.4998 62 39.5223 62 39.5449C62 39.5675 62 39.59 62 39.6126C62 39.6351 62 39.6576 62 39.6801C62 39.7026 62 39.7252 62 39.7476C62 39.7701 62 39.7926 62 39.8151C62 39.8375 62 39.86 62 39.8824C62 39.9049 62 39.9273 62 39.9497C62 39.9721 62 39.9945 62 40.0169C62 40.0393 62 40.0617 62 40.0841C62 40.1064 62 40.1288 62 40.1511C62 40.1735 62 40.1958 62 40.2181C62 40.2404 62 40.2627 62 40.285C62 40.3073 62 40.3296 62 40.3518C62 40.3741 62 40.3963 62 40.4186C62 40.4408 62 40.463 62 40.4852C62 40.5074 62 40.5296 62 40.5518C62 40.574 62 40.5961 62 40.6183C62 40.6404 62 40.6626 62 40.6847C62 40.7068 62 40.7289 62 40.751C62 40.7731 62 40.7951 62 40.8172C62 40.8393 62 40.8613 62 40.8833C62 40.9054 62 40.9274 62 40.9494C62 40.9714 62 40.9933 62 41.0153C62 41.0373 62 41.0592 62 41.0812C62 41.1031 62 41.125 62 41.1469C62 41.1688 62 41.1907 62 41.2126C62 41.2344 62 41.2563 62 41.2781C62 41.3 62 41.3218 62 41.3436C62 41.3654 62 41.3872 62 41.409C62 41.4307 62 41.4525 62 41.4742C62 41.496 62 41.5177 62 41.5394C62 41.5611 62 41.5828 62 41.6044C62 41.6261 62 41.6478 62 41.6694C62 41.691 62 41.7127 62 41.7342C62 41.7558 62 41.7774 62 41.799C62 41.8206 62 41.8421 62 41.8636C62 41.8852 62 41.9067 62 41.9282C62 41.9496 62 41.9711 62 41.9926C62 42.014 62 42.0355 62 42.0569C62 42.0783 62 42.0997 62 42.1211C62 42.1424 62 42.1638 62 42.1851C62 42.2065 62 42.2278 62 42.2491C62 42.2704 62 42.2917 62 42.313C62 42.3342 62 42.3555 62 42.3767C62 42.3979 62 42.4191 62 42.4403C62 42.4615 62 42.4827 62 42.5038C62 42.525 62 42.5461 62 42.5672C62 42.5883 62 42.6094 62 42.6304C62 42.6515 62 42.6725 62 42.6936C62 42.7146 62 42.7356 62 42.7566C62 42.7776 62 42.7985 62 42.8195C62 42.8404 62 42.8613 62 42.8822C62 42.9031 62 42.924 62 42.9448C62 42.9657 62 42.9865 62 43.0073C62 43.0282 62 43.0489 62 43.0697C62 43.0905 62 43.1112 62 43.132C62 43.1527 62 43.1734 62 43.1941C62 43.2147 62 43.2354 62 43.256C62 43.2767 62 43.2973 62 43.3179C62 43.3385 62 43.359 62 43.3796C62 43.4001 62 43.4207 62 43.4412C62 43.4617 62 43.4821 62 43.5026C62 43.523 62 43.5435 62 43.5639C62 43.5843 62 43.6047 62 43.625C62 43.6454 62 43.6657 62 43.686C62 43.7064 62 43.7266 62 43.7469C62 43.7672 62 43.7874 62 43.8076C62 43.8279 62 43.8481 62 43.8682C62 43.8884 62 43.9085 62 43.9287C62 43.9488 62 43.9689 62 43.9889C62 44.009 62 44.0291 62 44.0491C62 44.0691 62 44.0891 62 44.1091C62 44.1291 62 44.149 62 44.1689C62 44.1888 62 44.2087 62 44.2286C62 44.2485 62 44.2683 62 44.2882C62 44.308 62 44.3278 62 44.3475C62 44.3673 62 44.3871 62 44.4068C62 44.4265 62 44.4462 62 44.4658C62 44.4855 62 44.5051 62 44.5248C62 44.5444 62 44.564 62 44.5835C62 44.6031 62 44.6226 62 44.6421C62 44.6616 62 44.6811 62 44.7006C62 44.72 62 44.7394 62 44.7588C62 44.7782 62 44.7976 62 44.8169C62 44.8363 62 44.8556 62 44.8749C62 44.8942 62 44.9134 62 44.9327C62 44.9519 62 44.9711 62 44.9903C62 45.0095 62 45.0286 62 45.0477C62 45.0669 62 45.086 62 45.105C62 45.1241 62 45.1431 62 45.1621C62 45.1811 62 45.2001 62 45.2191C62 45.238 62 45.2569 62 45.2758C62 45.2947 62 45.3136 62 45.3324C62 45.3513 62 45.3701 62 45.3888C62 45.4076 62 45.4264 62 45.4451C62 45.4638 62 45.4825 62 45.5012C62 45.5198 62 45.5384 62 45.557C62 45.5756 62 45.5942 62 45.6128C62 45.6313 62 45.6498 62 45.6683C62 45.6868 62 45.7052 62 45.7236C62 45.7421 62 45.7604 62 45.7788C62 45.7972 62 45.8155 62 45.8338C62 45.8521 62 45.8703 62 45.8886C62 45.9068 62 45.925 62 45.9432C62 45.9614 62 45.9795 62 45.9976C62 46.0157 62 46.0338 62 46.0518H64ZM64 19.2918L64.8944 17.503L46.261 8.18627L45.3666 9.97512L44.4721 11.764L63.1056 21.0807L64 19.2918ZM34.6334 9.97513L35.5279 11.764C38.3431 10.3563 41.6569 10.3563 44.4721 11.764L45.3666 9.97512L46.261 8.18627C42.3196 6.21558 37.6804 6.21558 33.739 8.18627L34.6334 9.97513ZM32 37.2918L30.5858 38.7061L36.5858 44.7061L38 43.2918L39.4142 41.8776L33.4142 35.8776L32 37.2918ZM38 43.2918L39.4142 44.7061L51.4142 32.7061L50 31.2918L48.5858 29.8776L36.5858 41.8776L38 43.2918Z" fill="#DAD5C1"/>
</svg>
