<svg xmlns="http://www.w3.org/2000/svg" viewBox="0 0 48 48" fill="none">
  <path d="M18.9496 18.9476V17.7476C18.2868 17.7476 17.7496 18.2849 17.7496 18.9476H18.9496ZM19.1253 18.9476H20.3253C20.3253 18.2849 19.788 17.7476 19.1253 17.7476V18.9476ZM29.5336 18.9476V17.7476C28.8708 17.7476 28.3336 18.2849 28.3336 18.9476H29.5336ZM29.6898 18.9476H30.8898C30.8898 18.2849 30.3525 17.7476 29.6898 17.7476V18.9476ZM19.1253 19.0889V20.2889C19.788 20.2889 20.3253 19.7516 20.3253 19.0889H19.1253ZM18.9496 19.0889H17.7496C17.7496 19.7516 18.2868 20.2889 18.9496 20.2889V19.0889ZM29.6898 19.0889V20.2889C30.3525 20.2889 30.8898 19.7516 30.8898 19.0889H29.6898ZM29.5336 19.0889H28.3336C28.3336 19.7516 28.8708 20.2889 29.5336 20.2889V19.0889ZM19.1466 28.972L18.515 27.9516L16.4743 29.2148L17.1059 30.2352L19.1466 28.972ZM31.3772 30.2352L32.0088 29.2148L29.9681 27.9516L29.3365 28.972L31.3772 30.2352ZM41.8816 24.2396H40.6816C40.6816 33.3192 33.3211 40.6796 24.2416 40.6796V41.8796V43.0796C34.6466 43.0796 43.0816 34.6447 43.0816 24.2396H41.8816ZM24.2416 41.8796V40.6796C15.162 40.6796 7.80156 33.3192 7.80156 24.2396H6.60156H5.40156C5.40156 34.6447 13.8365 43.0796 24.2416 43.0796V41.8796ZM6.60156 24.2396H7.80156C7.80156 15.16 15.162 7.79961 24.2416 7.79961V6.59961V5.39961C13.8365 5.39961 5.40156 13.8346 5.40156 24.2396H6.60156ZM24.2416 6.59961V7.79961C33.3211 7.79961 40.6816 15.16 40.6816 24.2396H41.8816H43.0816C43.0816 13.8346 34.6466 5.39961 24.2416 5.39961V6.59961ZM18.9496 18.9476V20.1476H19.1253V18.9476V17.7476H18.9496V18.9476ZM29.5336 18.9476V20.1476H29.6898V18.9476V17.7476H29.5336V18.9476ZM19.1253 18.9476H17.9253V19.0889H19.1253H20.3253V18.9476H19.1253ZM19.1253 19.0889V17.8889H18.9496V19.0889V20.2889H19.1253V19.0889ZM18.9496 19.0889H20.1496V18.9476H18.9496H17.7496V19.0889H18.9496ZM29.6898 18.9476H28.4898V19.0889H29.6898H30.8898V18.9476H29.6898ZM29.6898 19.0889V17.8889H29.5336V19.0889V20.2889H29.6898V19.0889ZM29.5336 19.0889H30.7336V18.9476H29.5336H28.3336V19.0889H29.5336ZM24.2416 33.0595V31.8595C22.1139 31.8595 20.229 30.7205 19.1466 28.972L18.1263 29.6036L17.1059 30.2352C18.5959 32.6421 21.2274 34.2595 24.2416 34.2595V33.0595ZM30.3569 29.6036L29.3365 28.972C28.2542 30.7205 26.3693 31.8595 24.2416 31.8595V33.0595V34.2595C27.2558 34.2595 29.8873 32.6421 31.3772 30.2352L30.3569 29.6036Z" fill="#252525"/>
</svg>
