<svg xmlns="http://www.w3.org/2000/svg" viewBox="0 0 27 27" fill="none">
    <path d="M24.2734 11.5382C23.6416 11.7377 22.9766 11.8707 22.3116 11.8707C19.186 11.8374 16.6589 9.31034 16.6256 6.18473C16.6256 5.58621 16.7254 4.98769 16.9249 4.42241C16.1933 3.62438 15.7943 2.5936 15.7943 1.52956C15.7943 1.09729 15.8608 0.665025 15.9938 0.232759C15.1626 0.0997539 14.3313 0 13.5 0C6.05172 0 0 6.05172 0 13.5C0 20.9483 6.05172 27 13.5 27C20.9483 27 27 20.9483 27 13.5C27 13.2007 27 12.9015 26.9667 12.6022C26.0025 12.5025 25.0382 12.1367 24.2734 11.5382ZM6.18473 9.87562C8.51232 9.87562 8.51232 13.5333 6.18473 13.5333C3.85714 13.5333 3.52463 9.87562 6.18473 9.87562ZM8.1798 21.2808C5.5197 21.2808 5.5197 17.2906 8.1798 17.2906C10.8399 17.2906 10.8399 21.2808 8.1798 21.2808ZM12.17 1.79557C14.4975 1.79557 14.4975 5.78571 12.17 5.78571C9.84236 5.78571 9.50985 1.79557 12.17 1.79557ZM13.8325 11.9372C15.8276 11.9372 15.8276 14.5973 13.8325 14.5973C11.8374 14.5973 12.17 11.9372 13.8325 11.9372ZM16.1601 22.8768C14.165 22.8768 14.165 20.2167 16.1601 20.2167C18.1552 20.2167 17.8227 22.8768 16.1601 22.8768ZM22.4778 17.6897C20.8153 17.6897 20.8153 15.0296 22.4778 15.0296C24.1404 15.0296 24.1404 17.6897 22.4778 17.6897Z" fill="#FCFF7A"/>
</svg>
