<svg xmlns="http://www.w3.org/2000/svg" viewBox="0 0 80 80" fill="none">
  <path d="M57.8135 55.3626C57.0196 54.5946 55.7534 54.6155 54.9854 55.4094C54.2174 56.2033 54.2384 57.4694 55.0323 58.2374L57.8135 55.3626ZM66.6094 69.4374L68.0468 70.828L70.828 67.9532L69.3906 66.5626L66.6094 69.4374ZM64.2667 38.1333H62.2667C62.2667 51.4618 51.4618 62.2667 38.1333 62.2667V64.2667V66.2667C53.6709 66.2667 66.2667 53.6709 66.2667 38.1333H64.2667ZM38.1333 64.2667V62.2667C24.8049 62.2667 14 51.4618 14 38.1333H12H10C10 53.6709 22.5957 66.2667 38.1333 66.2667V64.2667ZM12 38.1333H14C14 24.8049 24.8049 14 38.1333 14V12V10C22.5957 10 10 22.5957 10 38.1333H12ZM38.1333 12V14C51.4618 14 62.2667 24.8049 62.2667 38.1333H64.2667H66.2667C66.2667 22.5957 53.6709 10 38.1333 10V12ZM56.4229 56.8L55.0323 58.2374L66.6094 69.4374L68 68L69.3906 66.5626L57.8135 55.3626L56.4229 56.8Z" fill="#DAD5C1"/>
</svg>
