<svg xmlns="http://www.w3.org/2000/svg" viewBox="0 0 40 40" >
  <path d="M13.8271 14.9915L13.4801 14.0536L13.8271 14.9915ZM14.9915 13.8271L15.9293 14.1741L14.9915 13.8271ZM5.28687 21.8483L4.93984 22.7862H4.93984L5.28687 21.8483ZM5.28687 18.1517L5.63391 19.0895L5.28687 18.1517ZM14.9915 26.1729L14.0536 26.5199L14.9915 26.1729ZM13.8271 25.0085L14.1741 24.0707H14.1741L13.8271 25.0085ZM21.8483 34.7131L22.7862 35.0602L21.8483 34.7131ZM18.1517 34.7131L19.0895 34.3661L18.1517 34.7131ZM26.1729 25.0085L26.5199 25.9464L26.1729 25.0085ZM25.0085 26.1729L24.0707 25.8259L25.0085 26.1729ZM34.7131 18.1517L34.3661 19.0895L34.7131 18.1517ZM34.7131 21.8483L34.3661 20.9105L34.7131 21.8483ZM25.0085 13.8271L25.9464 13.4801L25.0085 13.8271ZM26.1729 14.9915L25.8259 15.9293L26.1729 14.9915ZM21.8483 5.28687L20.9105 5.63391L21.8483 5.28687ZM18.1517 5.28687L17.2138 4.93984V4.93984L18.1517 5.28687ZM21.8483 5.28687L20.9105 5.63391L24.0707 14.1741L25.0085 13.8271L25.9464 13.4801L22.7862 4.93983L21.8483 5.28687ZM26.1729 14.9915L25.8259 15.9293L34.3661 19.0895L34.7131 18.1517L35.0602 17.2138L26.5199 14.0536L26.1729 14.9915ZM34.7131 21.8483L34.3661 20.9105L25.8259 24.0707L26.1729 25.0085L26.5199 25.9464L35.0602 22.7862L34.7131 21.8483ZM25.0085 26.1729L24.0707 25.8259L20.9105 34.3661L21.8483 34.7131L22.7862 35.0602L25.9464 26.5199L25.0085 26.1729ZM18.1517 34.7131L19.0895 34.3661L15.9293 25.8259L14.9915 26.1729L14.0536 26.5199L17.2138 35.0602L18.1517 34.7131ZM13.8271 25.0085L14.1741 24.0707L5.63391 20.9105L5.28687 21.8483L4.93984 22.7862L13.4801 25.9464L13.8271 25.0085ZM5.28687 18.1517L5.63391 19.0895L14.1741 15.9293L13.8271 14.9915L13.4801 14.0536L4.93983 17.2138L5.28687 18.1517ZM14.9915 13.8271L15.9293 14.1741L19.0895 5.63391L18.1517 5.28687L17.2138 4.93984L14.0536 13.4801L14.9915 13.8271ZM13.8271 14.9915L14.1741 15.9293C14.9873 15.6284 15.6284 14.9873 15.9293 14.1741L14.9915 13.8271L14.0536 13.4801C13.9553 13.7458 13.7458 13.9553 13.4801 14.0536L13.8271 14.9915ZM5.28687 21.8483L5.63391 20.9105C4.7887 20.5977 4.7887 19.4023 5.63391 19.0895L5.28687 18.1517L4.93983 17.2138C2.35338 18.1709 2.35339 21.8291 4.93984 22.7862L5.28687 21.8483ZM14.9915 26.1729L15.9293 25.8259C15.6284 25.0127 14.9873 24.3716 14.1741 24.0707L13.8271 25.0085L13.4801 25.9464C13.7458 26.0447 13.9553 26.2542 14.0536 26.5199L14.9915 26.1729ZM21.8483 34.7131L20.9105 34.3661C20.5977 35.2113 19.4023 35.2113 19.0895 34.3661L18.1517 34.7131L17.2138 35.0602C18.1709 37.6466 21.8291 37.6466 22.7862 35.0602L21.8483 34.7131ZM26.1729 25.0085L25.8259 24.0707C25.0127 24.3716 24.3716 25.0127 24.0707 25.8259L25.0085 26.1729L25.9464 26.5199C26.0447 26.2542 26.2542 26.0447 26.5199 25.9464L26.1729 25.0085ZM34.7131 18.1517L34.3661 19.0895C35.2113 19.4023 35.2113 20.5977 34.3661 20.9105L34.7131 21.8483L35.0602 22.7862C37.6466 21.8291 37.6466 18.1709 35.0602 17.2138L34.7131 18.1517ZM25.0085 13.8271L24.0707 14.1741C24.3716 14.9873 25.0127 15.6284 25.8259 15.9293L26.1729 14.9915L26.5199 14.0536C26.2542 13.9553 26.0447 13.7458 25.9464 13.4801L25.0085 13.8271ZM21.8483 5.28687L22.7862 4.93983C21.8291 2.35338 18.1709 2.35339 17.2138 4.93984L18.1517 5.28687L19.0895 5.63391C19.4023 4.7887 20.5977 4.7887 20.9105 5.63391L21.8483 5.28687Z" />
</svg>
