<svg xmlns="http://www.w3.org/2000/svg" viewBox="0 0 48 48" fill="none">
  <path d="M21.1234 39.3606H17.2834C14.1023 39.3606 11.5234 36.7818 11.5234 33.6006V14.4006C11.5234 11.2195 14.1023 8.64062 17.2834 8.64062H30.7234C33.9046 8.64062 36.4834 11.2195 36.4834 14.4006V19.2006M29.7634 16.3206H17.2834M24.0034 22.0806H17.2834M21.1234 27.8406H17.2834M26.8834 28.3206L29.1075 27.2086C30.7291 26.3978 32.6378 26.3978 34.2594 27.2086L36.4834 28.3206C36.4834 28.3206 36.4834 31.8246 36.4834 33.6726C36.4834 35.5206 34.7752 36.7681 31.6834 38.7206C28.5917 36.7681 26.8834 35.1206 26.8834 33.6726V28.3206Z" stroke="#252525" stroke-width="2.4" stroke-linecap="square"/>
</svg>
