<svg xmlns="http://www.w3.org/2000/svg" viewBox="0 0 48 48" fill="none">
  <path d="M14.7344 24.2404C14.7344 25.99 13.3161 27.4084 11.5664 27.4084C9.8168 27.4084 8.39844 25.99 8.39844 24.2404C8.39844 22.4908 9.8168 21.0724 11.5664 21.0724C13.3161 21.0724 14.7344 22.4908 14.7344 24.2404ZM14.7344 24.2404H33.7424M33.7424 24.2404C33.7424 25.99 35.1608 27.4084 36.9104 27.4084C38.6601 27.4084 40.0784 25.99 40.0784 24.2404C40.0784 22.4908 38.6601 21.0724 36.9104 21.0724C35.1608 21.0724 33.7424 22.4908 33.7424 24.2404ZM33.7424 11.5684C33.7424 13.318 35.1608 14.7364 36.9104 14.7364C38.6601 14.7364 40.0784 13.318 40.0784 11.5684C40.0784 9.81875 38.6601 8.40039 36.9104 8.40039C35.1608 8.40039 33.7424 9.81875 33.7424 11.5684ZM33.7424 11.5684H24.6344C23.7596 11.5684 23.0504 12.2776 23.0504 13.1524V35.3284C23.0504 36.2032 23.7596 36.9124 24.6344 36.9124H33.7424M33.7424 36.9124C33.7424 38.662 35.1608 40.0804 36.9104 40.0804C38.6601 40.0804 40.0784 38.662 40.0784 36.9124C40.0784 35.1628 38.6601 33.7444 36.9104 33.7444C35.1608 33.7444 33.7424 35.1628 33.7424 36.9124Z" stroke="#252525" stroke-width="2.4" stroke-linecap="round"/>
</svg>
