<svg xmlns="http://www.w3.org/2000/svg" viewBox="0 0 80 80" fill="none">
  <path d="M18.5112 37.2365L38.2913 49.0243C39.3427 49.6508 40.6528 49.6508 41.7042 49.0243L73.6508 29.9861C74.7354 29.3397 74.7354 27.769 73.6508 27.1226L41.7042 8.08441C40.6528 7.45787 39.3427 7.45787 38.2913 8.08441L6.3447 27.1226C5.2601 27.769 5.2601 29.3397 6.3447 29.9861L18.5112 37.2365ZM18.5112 37.2365V58.0478C18.5112 59.1881 19.094 60.2492 20.0563 60.8609L36.5497 71.345C38.6655 72.69 41.357 72.7341 43.5158 71.4594L61.4891 60.8462C62.5045 60.2466 63.1275 59.1552 63.1275 57.9759L63.1275 37.2365M73.9977 28.4989V46.4989" stroke="#DAD5C1" stroke-width="4" stroke-linecap="square"/>
</svg>
