<svg xmlns="http://www.w3.org/2000/svg" viewBox="0 0 158 40" fill="none">
  <path d="M2.60026 -5.34058e-05H0V24.0527H23.4023V20.9953H2.60026V-5.34058e-05Z" fill="#DAD5C1"/>
  <path d="M32.1787 24.0526H55.581V20.9952H32.1787V24.0526Z" fill="#DAD5C1"/>
  <path d="M32.1787 3.08185H55.581V0.0244203H32.1787V3.08185Z" fill="#DAD5C1"/>
  <path d="M32.1787 13.5668H55.581V10.5094H32.1787V13.5668Z" fill="#DAD5C1"/>
  <path d="M64.3564 24.0526H87.7588V20.9952H64.3564V24.0526Z" fill="#DAD5C1"/>
  <path d="M64.3564 3.08185H87.7588V0.0244203H64.3564V3.08185Z" fill="#DAD5C1"/>
  <path d="M64.3564 13.5668H87.7588V10.5094H64.3564V13.5668Z" fill="#DAD5C1"/>
  <path d="M105.312 13.5668H117.013V10.5094H105.312V13.5668Z" fill="#DAD5C1"/>
  <path d="M98.1602 24.077H100.76V3.08167H122.863V0.0242386H98.1602V24.077Z" fill="#DAD5C1"/>
  <path d="M157.966 0.0242386H128.713V3.08167H142.039V24.077H144.639V3.08167H157.966V0.0242386Z" fill="#DAD5C1"/>
  <path d="M3.09017 37.8748C3.09017 37.1039 2.56492 36.4776 1.91908 36.4776H0.891974V39.2717H1.91908C2.56492 39.2717 3.09017 38.6453 3.09017 37.8748ZM3.7087 37.8748C3.7087 39.0462 2.9062 39.9993 1.91908 39.9993H0.273438V35.7499H1.91908C2.9062 35.7499 3.7087 36.7034 3.7087 37.8748Z" fill="#DAD5C1"/>
  <path d="M14.0205 35.7498H14.6394V39.9988H14.0205V35.7498Z" fill="#DAD5C1"/>
  <path d="M28.2155 37.7023L28.2116 39.1733L28.1524 39.2685C28.1336 39.2983 27.685 39.9988 26.5838 39.9988C25.6864 39.9988 24.9561 39.0461 24.9561 37.8743C24.9561 36.7029 25.7069 35.7498 26.6293 35.7498C27.4858 35.7498 28.0455 36.2489 28.2054 37.1558L27.5995 37.3033C27.5371 36.9487 27.3684 36.4771 26.6293 36.4771C26.0478 36.4771 25.5746 37.1038 25.5746 37.8743C25.5746 38.6448 26.0277 39.2716 26.5838 39.2716C27.1637 39.2716 27.4718 39.0327 27.5937 38.9077L27.595 38.4338L26.758 38.4396L26.7548 37.7119L28.2155 37.7023Z" fill="#DAD5C1"/>
  <path d="M38.5889 35.7498H39.2075V39.9988H38.5889V35.7498Z" fill="#DAD5C1"/>
  <path d="M52.2984 35.7509V36.4782H51.1627V40H50.5445V36.4782H49.4092V35.7509H52.2984Z" fill="#DAD5C1"/>
  <path d="M63.9917 38.1461L63.5136 36.7179L63.0176 38.1461H63.9917ZM65.2765 39.9993H64.6115L64.2351 38.8734H62.765L62.374 39.9993H61.7061L63.1814 35.7498H63.8545L65.2765 39.9993Z" fill="#DAD5C1"/>
  <path d="M77.7173 39.2716V39.9988H75.4697V35.7498H76.0883V39.2716H77.7173Z" fill="#DAD5C1"/>
  <path d="M90.1343 38.1461L89.6561 36.7179L89.1601 38.1461H90.1343ZM91.4191 39.9993H90.7544L90.3777 38.8734H88.9076L88.5166 39.9993H87.8486L89.324 35.7498H89.9971L91.4191 39.9993Z" fill="#DAD5C1"/>
  <path d="M104.549 37.7023L104.546 39.1733L104.486 39.2685C104.468 39.2983 104.019 39.9988 102.918 39.9988C102.02 39.9988 101.29 39.0461 101.29 37.8743C101.29 36.7029 102.041 35.7498 102.963 35.7498C103.82 35.7498 104.379 36.2489 104.539 37.1558L103.934 37.3033C103.871 36.9487 103.702 36.4771 102.963 36.4771C102.382 36.4771 101.909 37.1038 101.909 37.8743C101.909 38.6448 102.361 39.2716 102.918 39.2716C103.497 39.2716 103.806 39.0327 103.928 38.9077L103.929 38.4338L103.092 38.4396L103.088 37.7119L104.549 37.7023Z" fill="#DAD5C1"/>
  <path d="M115.542 36.4771V37.5124H117.73V38.2397H115.542V39.2716H117.73V39.9989H114.924V35.7498H117.73V36.4771H115.542Z" fill="#DAD5C1"/>
  <path d="M131.196 35.7498V39.9988H130.513L128.744 36.9334V39.9988H128.125V35.7498H128.808L130.577 38.8152V35.7498H131.196Z" fill="#DAD5C1"/>
  <path d="M144.155 38.4453L144.76 38.5932C144.6 39.4997 144.04 39.9988 143.184 39.9988C142.262 39.9988 141.511 39.0461 141.511 37.8747C141.511 36.7029 142.262 35.7498 143.184 35.7498C144.04 35.7498 144.6 36.2493 144.76 37.1562L144.155 37.3037C144.092 36.9491 143.923 36.4774 143.184 36.4774C142.603 36.4774 142.13 37.1038 142.13 37.8747C142.13 38.6448 142.603 39.2719 143.184 39.2719C143.923 39.2719 144.092 38.7999 144.155 38.4453Z" fill="#DAD5C1"/>
  <path d="M158 35.7498L156.626 38.1304V39.9989H156.008V38.1323L154.599 35.7498H155.352L156.314 37.376L157.253 35.7498H158Z" fill="#DAD5C1"/>
</svg>
