<svg width="198" height="25" viewBox="0 0 198 25" fill="none" xmlns="http://www.w3.org/2000/svg">
<circle cx="8" cy="12.9999" r="8" fill="#FCFF7A"/>
<path d="M41.6018 -5.34058e-05H39V24.0527H62.4165V20.9953H41.6018V-5.34058e-05Z" fill="#FCFF7A"/>
<path d="M71.1953 24.0526H94.6118V20.9952H71.1953V24.0526Z" fill="#FCFF7A"/>
<path d="M71.1953 3.08191H94.6118V0.0244813H71.1953V3.08191Z" fill="#FCFF7A"/>
<path d="M71.1953 13.5669H94.6118V10.5095H71.1953V13.5669Z" fill="#FCFF7A"/>
<path d="M103.395 24.0526H126.811V20.9952H103.395V24.0526Z" fill="#FCFF7A"/>
<path d="M103.395 3.08191H126.811V0.0244813H103.395V3.08191Z" fill="#FCFF7A"/>
<path d="M103.395 13.5669H126.811V10.5095H103.395V13.5669Z" fill="#FCFF7A"/>
<path d="M144.375 13.5669H156.083V10.5095H144.375V13.5669Z" fill="#FCFF7A"/>
<path d="M137.219 24.077H139.821V3.08167H161.936V0.0242386H137.219V24.077Z" fill="#FCFF7A"/>
<path d="M197.06 0.0242386H167.789V3.08167H181.123V24.077H183.725V3.08167H197.06V0.0242386Z" fill="#FCFF7A"/>
</svg>
